<svg width="418" height="291" viewBox="0 0 418 291" fill="none" xmlns="http://www.w3.org/2000/svg">
<path fill-rule="evenodd" clip-rule="evenodd" d="M176.928 81.6056C179.961 73.9721 182.803 66.2487 186.104 58.7261C187.369 53.9207 190.161 49.6565 194.06 46.5758C195.431 46.0862 196.892 45.8964 198.343 46.0191C199.794 46.1418 201.202 46.5742 202.471 47.2872C203.741 48.0001 204.843 48.977 205.703 50.152C206.563 51.3269 207.161 52.6727 207.457 54.0984C208.054 57.3948 207.985 60.8128 208.324 65.4986C210.31 62.7674 212.021 60.6701 213.453 58.388C218.303 50.5801 224.705 49.6873 231.066 56.0266C232.752 57.8115 233.855 60.0679 234.227 62.4954C234.599 64.9228 234.222 67.4059 233.147 69.6138C231.885 74.9705 231.06 80.4208 230.68 85.911L232.355 86.6136C234.04 84.9443 235.794 83.3331 237.4 81.5845C245.604 72.6566 254.209 64.0511 261.827 54.6425C270.565 43.8552 281.817 35.8994 291.606 26.3271C295.832 22.1643 300.058 17.9434 304.401 13.8757C307.283 10.7058 311.047 8.46894 315.209 7.45188C318.876 6.6237 322.401 5.25834 325.669 3.40002C329.129 1.4265 332.998 0.278219 336.975 0.0445689C340.951 -0.189081 344.928 0.498213 348.596 2.05293C352.743 4.50307 356.445 7.63983 359.542 11.3294C361.33 12.9313 362.779 14.8748 363.805 17.0453C366.642 23.8019 369.23 30.6642 371.671 37.5687C373.995 44.1299 376.198 50.7386 378.089 57.4318C379.336 61.8535 379.806 66.4864 380.863 70.9715C381.335 73.6986 382.365 76.299 383.887 78.6104C385.41 80.9218 387.393 82.8945 389.711 84.4055C393.359 87.2416 396.489 90.6875 398.961 94.5906C402.131 98.8167 405.021 102.847 411.244 102.235C414.038 101.96 417.752 106.334 417.979 109.43C418.233 112.853 416.141 114.892 412.168 115.769C406.464 116.384 400.695 115.938 395.153 114.454C390.266 113.756 385.369 113.107 380.461 112.605C379.474 112.614 378.52 112.969 377.767 113.608C369.94 119.152 363.979 126.94 360.672 135.944C360.466 136.885 359.973 137.739 359.262 138.39C353.35 142.283 351.449 148.76 348.844 154.676C347.408 158.624 346.173 162.642 345.146 166.716C342.901 173.731 339.8 174.666 332.933 172.791C330.634 172.204 328.543 170.993 326.889 169.293C325.236 167.593 324.084 165.469 323.561 163.155C323.242 162.398 322.844 161.678 322.372 161.005C319.89 161.444 317.496 162.622 315.637 162.062C311.046 160.651 309.889 163.979 308.051 166.578C307.197 168.194 306.15 169.7 304.934 171.063C298.164 176.72 293.782 184.727 292.668 193.478C292.548 194.732 292.162 195.945 291.537 197.038C290.912 198.131 290.06 199.078 289.04 199.816C288.02 200.555 286.854 201.067 285.621 201.32C284.387 201.572 283.114 201.559 281.886 201.281C273.227 198.597 271.996 196.399 272.514 186.964C272.699 183.552 273.148 179.442 267.76 177.154C263.623 185.998 259.508 194.672 255.498 203.388C251.859 211.313 248.319 219.289 244.759 227.251C241.198 235.212 237.516 243.099 234.193 251.139C232.113 257.673 229.643 264.077 226.797 270.315C224.543 274.972 223.077 279.97 222.46 285.107C222.276 285.767 221.952 286.38 221.509 286.903C218.054 291.483 207.822 291.246 205.386 286.153C203.601 282.12 202.346 277.872 201.651 273.517C200.399 266.797 199.913 259.935 198.661 253.22C196.411 241.139 193.997 229.089 191.324 217.097C189.866 210.557 188.603 203.89 182.422 199.458C179.783 197.968 176.78 197.244 173.752 197.367C170.723 197.491 167.79 198.456 165.28 200.155C161.545 202.765 157.181 204.524 155.068 208.904C153.411 211.792 152.157 214.894 151.339 218.122C151.157 219.469 150.68 220.76 149.943 221.902C149.206 223.044 148.225 224.01 147.072 224.73C145.919 225.451 144.622 225.908 143.272 226.07C141.922 226.231 140.553 226.093 139.262 225.666C136.703 224.69 134.578 222.829 133.274 220.42C131.971 218.011 131.574 215.215 132.157 212.538C132.937 204.051 133.091 195.517 132.617 187.007C132.257 185.397 131.363 183.956 130.081 182.918C125.379 178.2 120.572 173.599 115.738 169.019C114.782 168.11 113.16 166.563 112.569 166.842C108.712 168.633 104.116 166.008 100.461 169.452C96.356 173.319 91.2687 176.182 87.3806 180.218C83.9433 183.911 81.0557 188.08 78.8067 192.596C76.8944 196.294 74.0206 196.436 70.7347 196.706C68.7324 196.952 66.7032 196.564 64.9336 195.595C63.1639 194.626 61.7432 193.126 60.8719 191.307C58.0298 186.436 60.0478 181.492 60.0319 176.557C59.9897 167.492 59.3874 158.422 59.5301 149.367C60.0249 140.82 58.1996 132.297 54.2473 124.702C52.5573 121.706 49.7495 119.501 46.438 118.569C43.1265 117.638 39.5809 118.055 36.5766 119.731C32.6258 121.596 28.8601 123.83 25.3296 126.403C23.8303 127.547 22.5552 128.959 21.5683 130.566C20.5106 132.363 19.0567 133.895 17.3172 135.045C15.5778 136.194 13.5988 136.932 11.5311 137.201C9.2018 136.755 7.00142 135.794 5.09043 134.39C3.17945 132.985 1.60604 131.172 0.484954 129.082C-0.185201 127.064 -0.16015 124.881 0.556106 122.879C1.27236 120.878 2.63852 119.175 4.43644 118.041C5.75008 117.365 6.79091 116.258 7.38363 114.905C7.97636 113.552 8.08477 112.037 7.6906 110.613C7.49182 108.534 7.8322 106.439 8.67888 104.53C9.52556 102.621 10.85 100.963 12.5243 99.7148C14.8163 97.7188 16.8452 95.4395 18.5625 92.9318C23.8822 84.7066 28.2933 75.821 34.2522 68.1029C40.8873 59.5344 48.8642 52.0064 56.2072 43.9767C64.2898 35.1387 75.3043 30.9283 85.4683 25.4132C95.1175 20.8484 105.666 18.5018 116.341 18.5456C119.775 18.6224 123.184 19.1553 126.478 20.1304C129.982 20.823 133.431 21.773 136.795 22.9725C141.868 24.4433 146.268 27.6382 149.236 32.006C152.448 37.3152 156.22 42.2809 159.685 47.4316C165.383 57.177 170.196 67.4136 174.065 78.0186C174.593 79.1544 175.058 80.2955 175.549 81.4366L176.928 81.6056ZM145.85 149.642C146.136 151.257 146.867 152.76 147.959 153.983C149.052 155.207 150.464 156.101 152.036 156.568C155.61 157.51 159.37 157.475 162.926 156.467C166.481 155.458 169.701 153.514 172.248 150.836C176.601 146.567 176.543 142.436 171.191 140.059C168.499 138.445 165.5 137.41 162.386 137.021C159.271 136.632 156.11 136.896 153.103 137.798C150.686 138.592 148.63 140.219 147.302 142.388C145.973 144.557 145.459 147.128 145.85 149.642ZM233.839 132.468C231.293 133.604 229.011 135.521 226.824 135.416C224.795 135.09 222.718 135.289 220.787 135.991C218.857 136.694 217.138 137.878 215.793 139.43C213.992 141.808 211.752 146.224 212.756 147.83C213.784 149.324 215.107 150.592 216.643 151.556C218.179 152.519 219.896 153.159 221.689 153.435C224.643 153.615 227.602 153.155 230.362 152.085C233.122 151.016 235.618 149.362 237.68 147.238C242.35 142.642 244.97 140.17 237.563 135.262C236.264 134.412 235.086 133.408 233.839 132.468Z" fill="#2D2D2D"/>
</svg>
