<svg width="32" height="32" viewBox="0 0 32 32" fill="none" xmlns="http://www.w3.org/2000/svg">
<g clip-path="url(#clip0_966_9)">
<path fill-rule="evenodd" clip-rule="evenodd" d="M13.5447 11.1405C13.7769 10.5561 13.9945 9.96486 14.2472 9.38896C14.3441 9.02109 14.5578 8.69464 14.8563 8.4588C14.9613 8.42132 15.0731 8.40679 15.1841 8.41618C15.2952 8.42558 15.403 8.45868 15.5002 8.51326C15.5974 8.56784 15.6818 8.64262 15.7476 8.73257C15.8134 8.82252 15.8592 8.92554 15.8819 9.03469C15.9276 9.28705 15.9223 9.54871 15.9482 9.90743C16.1003 9.69835 16.2313 9.53779 16.3409 9.36308C16.7122 8.76535 17.2023 8.697 17.6892 9.18231C17.8184 9.31895 17.9028 9.49169 17.9313 9.67752C17.9597 9.86335 17.9309 10.0534 17.8486 10.2225C17.752 10.6326 17.6888 11.0498 17.6597 11.4701L17.7879 11.5239C17.9169 11.3961 18.0512 11.2728 18.1741 11.1389C18.8022 10.4554 19.461 9.79662 20.0442 9.07635C20.7131 8.25052 21.5745 7.64147 22.3239 6.90866C22.6474 6.58998 22.971 6.26684 23.3034 5.95544C23.5241 5.71277 23.8122 5.54153 24.1308 5.46367C24.4116 5.40027 24.6814 5.29574 24.9316 5.15348C25.1965 5.00239 25.4927 4.91449 25.7971 4.8966C26.1015 4.87871 26.406 4.93133 26.6868 5.05035C27.0043 5.23792 27.2876 5.47806 27.5247 5.76051C27.6616 5.88315 27.7726 6.03193 27.8511 6.19809C28.0683 6.71535 28.2664 7.24069 28.4533 7.76926C28.6312 8.27155 28.7999 8.77748 28.9446 9.28988C29.0401 9.62838 29.0761 9.98306 29.157 10.3264C29.1931 10.5352 29.272 10.7343 29.3885 10.9112C29.5051 11.0882 29.6568 11.2392 29.8344 11.3548C30.1136 11.572 30.3532 11.8358 30.5425 12.1346C30.7852 12.4581 31.0064 12.7667 31.4828 12.7198C31.6967 12.6987 31.981 13.0336 31.9984 13.2706C32.0178 13.5326 31.8577 13.6888 31.5536 13.7559C31.1168 13.803 30.6752 13.7689 30.2509 13.6552C29.8768 13.6018 29.5019 13.5521 29.1262 13.5136C29.0506 13.5144 28.9776 13.5416 28.92 13.5905C28.3208 14.0149 27.8644 14.6111 27.6113 15.3004C27.5955 15.3724 27.5577 15.4378 27.5033 15.4876C27.0507 15.7857 26.9052 16.2815 26.7058 16.7344C26.5958 17.0367 26.5013 17.3443 26.4227 17.6561C26.2508 18.1932 26.0134 18.2648 25.4877 18.1212C25.3117 18.0763 25.1516 17.9836 25.025 17.8534C24.8984 17.7233 24.8103 17.5606 24.7702 17.3835C24.7458 17.3256 24.7153 17.2704 24.6792 17.2189C24.4892 17.2525 24.306 17.3427 24.1636 17.2998C23.8122 17.1918 23.7236 17.4466 23.5828 17.6456C23.5175 17.7693 23.4373 17.8845 23.3442 17.989C22.826 18.422 22.4905 19.0349 22.4052 19.7049C22.396 19.8009 22.3665 19.8938 22.3186 19.9774C22.2707 20.0611 22.2056 20.1336 22.1275 20.1901C22.0494 20.2467 21.9601 20.2859 21.8657 20.3052C21.7713 20.3245 21.6738 20.3235 21.5798 20.3022C20.9169 20.0968 20.8227 19.9285 20.8623 19.2063C20.8765 18.945 20.9108 18.6304 20.4983 18.4552C20.1817 19.1322 19.8666 19.7963 19.5597 20.4636C19.281 21.0702 19.0101 21.6809 18.7375 22.2904C18.4649 22.8998 18.183 23.5036 17.9287 24.1191C17.7694 24.6194 17.5803 25.1096 17.3625 25.5872C17.1899 25.9437 17.0777 26.3263 17.0304 26.7196C17.0164 26.7701 16.9915 26.817 16.9576 26.8571C16.6932 27.2077 15.9098 27.1895 15.7234 26.7996C15.5867 26.4909 15.4906 26.1657 15.4374 25.8323C15.3416 25.3178 15.3044 24.7925 15.2085 24.2785C15.0362 23.3536 14.8514 22.4311 14.6468 21.5131C14.5352 21.0124 14.4385 20.502 13.9653 20.1627C13.7633 20.0487 13.5334 19.9932 13.3016 20.0027C13.0697 20.0121 12.8451 20.086 12.653 20.2161C12.3671 20.4159 12.033 20.5505 11.8713 20.8858C11.7444 21.107 11.6484 21.3444 11.5857 21.5915C11.5718 21.6947 11.5353 21.7935 11.4789 21.8809C11.4224 21.9684 11.3474 22.0423 11.2591 22.0974C11.1709 22.1526 11.0715 22.1876 10.9682 22.1999C10.8648 22.2123 10.76 22.2018 10.6612 22.169C10.4653 22.0944 10.3026 21.9519 10.2028 21.7675C10.103 21.583 10.0727 21.3689 10.1173 21.1641C10.177 20.5143 10.1888 19.861 10.1525 19.2095C10.1249 19.0862 10.0565 18.9759 9.95835 18.8965C9.59842 18.5353 9.2304 18.1831 8.86035 17.8324C8.78715 17.7629 8.66299 17.6444 8.6177 17.6658C8.32247 17.8029 7.97063 17.6019 7.69077 17.8656C7.37654 18.1616 6.98708 18.3808 6.68943 18.6898C6.42628 18.9725 6.20522 19.2916 6.03305 19.6374C5.88665 19.9205 5.66665 19.9314 5.4151 19.952C5.26181 19.9709 5.10647 19.9411 4.97099 19.867C4.83552 19.7928 4.72675 19.678 4.66005 19.5387C4.44247 19.1658 4.59696 18.7873 4.59575 18.4095C4.59251 17.7156 4.54641 17.0212 4.55733 16.328C4.59521 15.6736 4.45547 15.0212 4.15291 14.4398C4.02352 14.2104 3.80857 14.0416 3.55506 13.9703C3.30155 13.8989 3.03012 13.9309 2.80012 14.0592C2.49767 14.202 2.20938 14.373 1.93911 14.57C1.82433 14.6576 1.72671 14.7656 1.65116 14.8887C1.57019 15.0262 1.45888 15.1435 1.32572 15.2315C1.19256 15.3196 1.04106 15.376 0.882767 15.3966C0.704444 15.3625 0.535994 15.2889 0.389698 15.1814C0.243403 15.0739 0.122951 14.935 0.0371257 14.775C-0.0141781 14.6206 -0.0122603 14.4534 0.0425727 14.3002C0.0974057 14.147 0.201992 14.0166 0.339632 13.9298C0.440198 13.8781 0.519878 13.7933 0.565254 13.6898C0.61063 13.5862 0.618929 13.4701 0.588754 13.3612C0.573537 13.202 0.599594 13.0417 0.664412 12.8955C0.729229 12.7494 0.830619 12.6224 0.958798 12.5269C1.13426 12.374 1.28959 12.1996 1.42105 12.0076C1.8283 11.3779 2.16599 10.6977 2.62218 10.1068C3.13013 9.45084 3.7408 8.87454 4.30294 8.25983C4.92171 7.58323 5.76492 7.26091 6.54303 6.83869C7.28172 6.48924 8.08928 6.3096 8.90646 6.31295C9.16938 6.31882 9.43036 6.35962 9.68254 6.43427C9.9508 6.48729 10.2148 6.56002 10.4724 6.65185C10.8607 6.76445 11.1975 7.00903 11.4248 7.34341C11.6707 7.74985 11.9594 8.13001 12.2247 8.52432C12.6609 9.27037 13.0293 10.054 13.3255 10.8659C13.366 10.9529 13.4016 11.0402 13.4392 11.1276L13.5447 11.1405ZM11.1655 16.349C11.1875 16.4727 11.2434 16.5877 11.327 16.6814C11.4107 16.775 11.5187 16.8435 11.6391 16.8792C11.9127 16.9513 12.2006 16.9487 12.4728 16.8715C12.745 16.7943 12.9914 16.6454 13.1864 16.4404C13.5197 16.1137 13.5152 15.7974 13.1055 15.6154C12.8995 15.4918 12.6699 15.4126 12.4314 15.3828C12.193 15.353 11.951 15.3733 11.7208 15.4423C11.5358 15.5031 11.3784 15.6276 11.2767 15.7937C11.175 15.9598 11.1356 16.1566 11.1655 16.349ZM17.9016 15.0343C17.7066 15.1212 17.5319 15.268 17.3645 15.2599C17.2092 15.235 17.0502 15.2502 16.9024 15.304C16.7546 15.3578 16.623 15.4484 16.5201 15.5673C16.3822 15.7493 16.2107 16.0874 16.2875 16.2103C16.3662 16.3247 16.4675 16.4217 16.5851 16.4955C16.7027 16.5693 16.8342 16.6183 16.9714 16.6394C17.1976 16.6532 17.4241 16.618 17.6354 16.5361C17.8467 16.4542 18.0378 16.3276 18.1956 16.165C18.5531 15.8132 18.7537 15.6239 18.1867 15.2482C18.0872 15.1831 17.997 15.1062 17.9016 15.0343Z" fill="#1F1F1F"/>
</g>
<defs>
<clipPath id="clip0_966_9">
<rect width="32" height="32" fill="white"/>
</clipPath>
</defs>
</svg>
