<svg width="256" height="256" viewBox="0 0 256 256" fill="none" xmlns="http://www.w3.org/2000/svg">
<g clip-path="url(#clip0_966_12)">
<path fill-rule="evenodd" clip-rule="evenodd" d="M108.358 89.231C110.215 84.5559 111.956 79.8258 113.978 75.2187C114.752 72.2757 116.462 69.6641 118.85 67.7773C119.69 67.4775 120.585 67.3612 121.473 67.4364C122.362 67.5115 123.224 67.7764 124.002 68.213C124.779 68.6496 125.454 69.2479 125.981 69.9675C126.508 70.6871 126.874 71.5113 127.055 72.3845C127.421 74.4033 127.379 76.4966 127.586 79.3664C128.802 77.6937 129.85 76.4093 130.727 75.0116C133.697 70.2297 137.619 69.683 141.514 73.5654C142.547 74.6585 143.222 76.0405 143.45 77.5271C143.678 79.0138 143.447 80.5345 142.789 81.8867C142.016 85.1674 141.511 88.5054 141.278 91.8678L142.303 92.2981C143.335 91.2757 144.41 90.2889 145.393 89.218C150.418 83.7503 155.688 78.4799 160.353 72.7177C165.705 66.1111 172.596 61.2387 178.591 55.3762C181.179 52.8267 183.768 50.2417 186.427 47.7505C188.193 45.8091 190.498 44.4392 193.047 43.8163C195.293 43.3091 197.451 42.4729 199.453 41.3348C201.572 40.1261 203.941 39.4228 206.377 39.2797C208.812 39.1366 211.248 39.5576 213.494 40.5097C216.034 42.0103 218.301 43.9314 220.198 46.191C221.293 47.1721 222.181 48.3623 222.809 49.6917C224.546 53.8297 226.131 58.0324 227.626 62.261C229.05 66.2794 230.399 70.3268 231.557 74.426C232.321 77.134 232.609 79.9714 233.256 82.7182C233.545 84.3884 234.176 85.981 235.108 87.3966C236.041 88.8122 237.255 90.0204 238.675 90.9457C240.909 92.6827 242.826 94.7931 244.34 97.1835C246.281 99.7718 248.051 102.24 251.862 101.865C253.574 101.697 255.848 104.376 255.987 106.272C256.143 108.368 254.861 109.617 252.428 110.154C248.935 110.531 245.402 110.258 242.007 109.348C239.015 108.921 236.015 108.523 233.01 108.216C232.405 108.222 231.821 108.439 231.36 108.831C226.566 112.226 222.916 116.996 220.89 122.51C220.764 123.086 220.462 123.61 220.026 124.008C216.406 126.392 215.241 130.359 213.646 133.982C212.766 136.4 212.011 138.861 211.381 141.356C210.006 145.652 208.107 146.225 203.901 145.076C202.494 144.717 201.213 143.976 200.2 142.934C199.187 141.893 198.482 140.592 198.162 139.175C197.967 138.712 197.723 138.27 197.434 137.858C195.913 138.127 194.448 138.848 193.309 138.505C190.497 137.642 189.789 139.68 188.663 141.272C188.14 142.261 187.499 143.183 186.754 144.019C182.608 147.483 179.924 152.386 179.241 157.746C179.168 158.514 178.932 159.257 178.549 159.927C178.166 160.596 177.645 161.176 177.02 161.628C176.395 162.08 175.681 162.394 174.926 162.549C174.17 162.703 173.39 162.695 172.638 162.525C167.335 160.881 166.581 159.535 166.899 153.757C167.012 151.667 167.287 149.15 163.987 147.749C161.453 153.165 158.933 158.477 156.477 163.816C154.248 168.669 152.081 173.554 149.9 178.43C147.719 183.305 145.464 188.136 143.429 193.06C142.155 197.062 140.643 200.984 138.9 204.804C137.519 207.656 136.622 210.718 136.244 213.863C136.131 214.268 135.932 214.643 135.661 214.963C133.545 217.769 127.278 217.623 125.787 214.504C124.693 212.034 123.925 209.433 123.499 206.765C122.733 202.65 122.435 198.447 121.668 194.335C120.29 186.936 118.811 179.556 117.174 172.211C116.281 168.206 115.508 164.123 111.723 161.409C110.106 160.496 108.267 160.053 106.413 160.128C104.558 160.204 102.761 160.795 101.224 161.836C98.9366 163.434 96.2642 164.511 94.9701 167.193C93.9553 168.963 93.1868 170.862 92.6859 172.839C92.5746 173.664 92.2827 174.455 91.8311 175.154C91.3795 175.854 90.7792 176.445 90.073 176.886C89.3668 177.327 88.5721 177.607 87.7454 177.706C86.9186 177.806 86.0802 177.721 85.2899 177.459C83.7223 176.862 82.4211 175.722 81.6226 174.247C80.824 172.771 80.5813 171.058 80.9383 169.419C81.416 164.221 81.5101 158.995 81.2198 153.783C80.9995 152.797 80.4522 151.914 79.6668 151.279C76.7873 148.39 73.8432 145.572 70.8828 142.766C70.2972 142.21 69.304 141.262 68.9416 141.433C66.5798 142.53 63.765 140.922 61.5262 143.032C59.0123 145.4 55.8966 147.154 53.5154 149.625C51.4102 151.887 49.6417 154.44 48.2644 157.206C47.0932 159.471 45.3332 159.558 43.3208 159.723C42.0945 159.874 40.8517 159.636 39.7679 159.043C38.6841 158.449 37.814 157.531 37.2804 156.416C35.5398 153.433 36.7757 150.405 36.766 147.383C36.7401 141.831 36.3712 136.276 36.4586 130.731C36.7617 125.496 35.6438 120.277 33.2232 115.625C32.1882 113.79 30.4686 112.44 28.4405 111.869C26.4124 111.299 24.2409 111.554 22.401 112.581C19.9813 113.723 17.6751 115.091 15.5129 116.667C14.5946 117.368 13.8137 118.232 13.2093 119.216C12.5615 120.317 11.6711 121.255 10.6058 121.959C9.54048 122.663 8.32848 123.115 7.06214 123.28C5.63556 123.007 4.28795 122.418 3.11758 121.558C1.94722 120.698 0.983605 119.587 0.297006 118.307C-0.113425 117.072 -0.0980824 115.734 0.340582 114.509C0.779246 113.283 1.61594 112.24 2.71705 111.545C3.52158 111.132 4.15903 110.454 4.52203 109.625C4.88504 108.796 4.95144 107.868 4.71003 106.996C4.58829 105.723 4.79675 104.44 5.31529 103.271C5.83383 102.102 6.64496 101.086 7.67039 100.322C9.07408 99.0993 10.3167 97.7034 11.3684 96.1676C14.6264 91.1301 17.3279 85.6883 20.9774 80.9614C25.041 75.7137 29.9264 71.1033 34.4236 66.1855C39.3737 60.7728 46.1194 58.1942 52.3442 54.8165C58.2538 52.0208 64.7142 50.5837 71.2516 50.6105C73.3551 50.6575 75.4429 50.9839 77.4603 51.5811C79.6064 52.0053 81.7184 52.5871 83.7789 53.3218C86.8854 54.2225 89.5801 56.1792 91.3982 58.8542C93.3653 62.1058 95.6754 65.147 97.7977 68.3015C101.287 74.2699 104.235 80.5393 106.604 87.0342C106.928 87.7298 107.213 88.4286 107.514 89.1275L108.358 89.231ZM89.3243 130.899C89.4998 131.888 89.9471 132.809 90.6163 133.558C91.2854 134.307 92.1499 134.855 93.113 135.141C95.3015 135.718 97.6049 135.696 99.7824 135.079C101.96 134.461 103.932 133.27 105.491 131.63C108.157 129.016 108.122 126.486 104.844 125.03C103.196 124.042 101.359 123.408 99.4515 123.17C97.544 122.931 95.6078 123.093 93.7665 123.645C92.2863 124.132 91.0271 125.128 90.2134 126.457C89.3998 127.785 89.0847 129.36 89.3243 130.899ZM143.212 120.381C141.653 121.077 140.255 122.251 138.916 122.186C137.674 121.987 136.401 122.109 135.219 122.539C134.037 122.969 132.984 123.694 132.16 124.645C131.057 126.101 129.685 128.806 130.3 129.789C130.93 130.704 131.74 131.481 132.681 132.071C133.622 132.661 134.673 133.053 135.771 133.222C137.581 133.333 139.393 133.051 141.083 132.396C142.773 131.741 144.302 130.728 145.565 129.427C148.425 126.612 150.029 125.098 145.493 122.093C144.698 121.572 143.976 120.957 143.212 120.381Z" fill="#1F1F1F"/>
</g>
<defs>
<clipPath id="clip0_966_12">
<rect width="256" height="256" fill="white"/>
</clipPath>
</defs>
</svg>
